# xmcd
#
# Track frame offsets: 
#        150
#        11631
#        22577
#        33853
#        44191
#        55994
#        72875
#        87802
#        99549
#        113772
#        122948
#        136458
#        151321
#        162161
#        174018
#        184373
#        197598
#        210017
#        224577
#        238024
#
# Disc length: 3390 seconds
#
# Revision: 0
# Processed by: cddbd v1.5.2PL0 Copyright (c) Steve Scherf et al.
# Submitted via: ExactAudioCopy v1.3
#
DISCID=0b0d3c14
DTITLE=Eddie Cash - Country Vol IV - CD2
DYEAR=1900
DGENRE=
TTITLE0=Missing You
TTITLE1=Heartaches by the Number
TTITLE2=Get Rhythm
TTITLE3=Hello Walls
TTITLE4=Am I Losing You
TTITLE5=Somebody Done Somebody Wrong Song
TTITLE6=He Stopped Loving Her Today
TTITLE7=Sixteen Tons
TTITLE8=San Antonio Rose
TTITLE9=Ring of Fire
TTITLE10=Wolverton Mountain
TTITLE11=Saginaw Michigan
TTITLE12=Singin in the Rain
TTITLE13=Dream
TTITLE14=It's Only Make Believe
TTITLE15=I'm So Lonesome I Could Cry
TTITLE16=Distant Drums
TTITLE17=Who's Going to Fill Their Shoes
TTITLE18=Four Walls
TTITLE19=You Don't Even Know Me
EXTD=
EXTT0=
EXTT1=
EXTT2=
EXTT3=
EXTT4=
EXTT5=
EXTT6=
EXTT7=
EXTT8=
EXTT9=
EXTT10=
EXTT11=
EXTT12=
EXTT13=
EXTT14=
EXTT15=
EXTT16=
EXTT17=
EXTT18=
EXTT19=
PLAYORDER=
